<svg width="140" height="40" viewBox="0 0 848 242" fill="none" xmlns="http://www.w3.org/2000/svg"><path d="M365.259 143.083a1.635 1.635 0 0 1 0-2.067l40.922-48.678a1.638 1.638 0 0 0-1.258-2.697h-36.921a1.687 1.687 0 0 0-1.309.63l-32.718 42.224a1.636 1.636 0 0 1-2.945-1.008V41.191a1.688 1.688 0 0 0-1.661-1.664h-31.661a1.66 1.66 0 0 0-1.635 1.664v157.577a1.633 1.633 0 0 0 1.635 1.638h31.586a1.66 1.66 0 0 0 1.661-1.638v-41.594a1.64 1.64 0 0 1 2.152-1.564c.33.11.616.322.818.606l31.862 43.51a1.638 1.638 0 0 0 1.334.68h38.733a1.626 1.626 0 0 0 1.485-.911 1.64 1.64 0 0 0-.176-1.735l-41.904-54.677Z" fill="#ffffff"/><path d="M465.049 203.406c37.877 0 61.258-24.603 61.258-58.383 0-33.779-23.381-58.382-61.258-58.382-37.878 0-61.485 24.603-61.485 58.382 0 33.78 23.406 58.383 61.485 58.383Zm0-29.645c-16.737 0-26.376-11.949-26.376-28.738 0-16.788 9.639-28.737 26.376-28.737 16.736 0 26.401 11.949 26.401 28.737 0 16.789-9.866 28.738-26.401 28.738Zm123.849 29.645a41.699 41.699 0 0 0 17.111-3.25 41.767 41.767 0 0 0 14.299-9.959 2.158 2.158 0 0 1 2.218-.561 2.16 2.16 0 0 1 1.481 1.746v7.562a1.64 1.64 0 0 0 1.661 1.639h31.586a1.637 1.637 0 0 0 1.636-1.639V91.279a1.635 1.635 0 0 0-1.636-1.639h-31.586a1.628 1.628 0 0 0-1.173.472 1.651 1.651 0 0 0-.488 1.167v7.563a2.139 2.139 0 0 1-3.674 1.134 39.397 39.397 0 0 0-13.979-10.165 39.334 39.334 0 0 0-16.977-3.195c-32.14 0-52.551 25.208-52.551 58.382s19.027 58.408 52.072 58.408Zm10.067-29.191c-16.283 0-26.375-12.403-26.375-29.192 0-16.788 10.067-28.964 26.375-28.964 17.442 0 26.401 13.108 26.401 28.964 0 15.856-8.934 29.192-26.375 29.192h-.026Zm112.551 26.191a1.66 1.66 0 0 0 1.661-1.638V41.191a1.684 1.684 0 0 0-1.661-1.664h-31.863a1.66 1.66 0 0 0-1.635 1.664v157.577a1.633 1.633 0 0 0 1.635 1.638h31.863Zm66.493 3a41.79 41.79 0 0 0 17.107-3.259 41.861 41.861 0 0 0 14.302-9.95 2.162 2.162 0 0 1 3.7 1.185v7.562a1.64 1.64 0 0 0 1.636 1.639h31.585a1.66 1.66 0 0 0 1.661-1.639V91.279a1.666 1.666 0 0 0-1.661-1.638h-31.636a1.64 1.64 0 0 0-1.636 1.639v7.562a2.139 2.139 0 0 1-3.674 1.134A39.442 39.442 0 0 0 795.4 89.811a39.38 39.38 0 0 0-16.989-3.195c-32.113 0-52.55 25.208-52.55 58.382s19.103 58.408 52.148 58.408Zm10.067-29.191c-16.284 0-26.376-12.403-26.376-29.192 0-16.788 10.067-28.964 26.376-28.964 17.441 0 26.376 13.108 26.376 28.964 0 15.856-8.91 29.192-26.351 29.192h-.025Z" fill="#fff"/><circle cx="121" cy="121" r="121" fill="#4D32E4"/><path d="M145.049 144.646a10.936 10.936 0 0 0-10.09 6.771 10.94 10.94 0 1 0 10.09-6.771Z" fill="#ffffff"/><path d="M121 0a121 121 0 1 0 0 242 121 121 0 0 0 0-242Zm96.044 168.14a24.403 24.403 0 0 0-45.703 11.974v35.342a106.57 106.57 0 0 1-46.963 12.604 99.621 99.621 0 0 1-25.208-71.768 97.729 97.729 0 0 1 16.688-48.627 1.011 1.011 0 0 0-.152-1.361 1.08 1.08 0 0 0-1.311.126 78.598 78.598 0 0 0-27.98 48.954c-.329 1.714-.707 4.639-.908 6.252 0 .706-1.009.882-1.437.756a54.8 54.8 0 0 1-36.84-60.675 54.803 54.803 0 0 1 98.247-23.823 5.681 5.681 0 0 0 4.613 2.394h69.802a106.85 106.85 0 0 1-2.823 87.952l-.025-.1Z" fill="#ffffff"/></svg>